<svg xmlns="http://www.w3.org/2000/svg" width="128" height="128" viewBox="0 0 128 128">
  <defs>
    <linearGradient id="grad" x1="0%" y1="0%" x2="100%" y2="100%">
      <stop offset="0%" style="stop-color:#667eea;stop-opacity:1" />
      <stop offset="100%" style="stop-color:#764ba2;stop-opacity:1" />
    </linearGradient>
  </defs>
  
  <!-- 背景圆 -->
  <circle cx="64" cy="64" r="60" fill="url(#grad)"/>
  
  <!-- DOM树图标 -->
  <g fill="white" opacity="0.9">
    <!-- 根节点 -->
    <rect x="54" y="20" width="20" height="16" rx="3"/>
    
    <!-- 第二层 -->
    <rect x="34" y="46" width="20" height="16" rx="3"/>
    <rect x="74" y="46" width="20" height="16" rx="3"/>
    
    <!-- 第三层 -->
    <rect x="24" y="72" width="20" height="16" rx="3"/>
    <rect x="44" y="72" width="20" height="16" rx="3"/>
    <rect x="84" y="72" width="20" height="16" rx="3"/>
    
    <!-- 连接线 -->
    <path d="M64 36 L64 40 L44 40 L44 46" stroke="white" stroke-width="2" fill="none"/>
    <path d="M64 40 L84 40 L84 46" stroke="white" stroke-width="2" fill="none"/>
    <path d="M44 62 L44 66 L34 66 L34 72" stroke="white" stroke-width="2" fill="none"/>
    <path d="M44 66 L54 66 L54 72" stroke="white" stroke-width="2" fill="none"/>
    <path d="M84 62 L84 66 L94 66 L94 72" stroke="white" stroke-width="2" fill="none"/>
  </g>
  
  <!-- 差分标记 -->
  <circle cx="100" cy="28" r="12" fill="#ef4444"/>
  <text x="100" y="33" font-family="Arial" font-size="16" font-weight="bold" fill="white" text-anchor="middle">Δ</text>
</svg>
